<?xml version="1.0" encoding="UTF-8" ?>
<!DOCTYPE svg PUBLIC "-//W3C//DTD SVG 1.1//EN" "http://www.w3.org/Graphics/SVG/1.1/DTD/svg11.dtd">
<svg width="1187pt" height="806pt" viewBox="0 0 1187 806" version="1.1" xmlns="http://www.w3.org/2000/svg">
<g id="#ffffffff">
<path fill="#ffffff" opacity="1.00" d=" M 0.00 0.00 L 1187.00 0.00 L 1187.00 806.00 L 0.00 806.00 L 0.00 0.00 M 756.47 3.44 C 751.04 9.51 747.42 16.90 742.33 23.23 C 740.14 26.19 737.17 28.61 735.63 32.02 C 734.91 33.78 737.11 34.81 737.95 36.03 C 743.02 28.74 748.70 21.88 753.23 14.22 C 755.40 10.31 759.28 7.64 761.07 3.52 C 759.53 3.46 757.99 3.44 756.47 3.44 M 665.38 7.04 C 665.19 11.25 668.24 14.44 670.27 17.81 C 672.72 21.14 674.63 25.40 678.76 26.94 C 678.19 22.70 674.49 19.93 672.63 16.26 C 670.35 13.14 669.27 8.60 665.38 7.04 M 694.33 39.17 C 687.10 41.13 680.12 43.93 673.52 47.46 C 664.58 52.75 657.99 61.17 653.36 70.33 C 649.50 78.31 646.33 87.04 646.67 96.03 C 647.43 104.62 649.99 113.53 656.14 119.86 C 664.26 128.04 675.16 132.86 686.28 135.38 C 690.52 135.75 694.80 135.55 699.04 136.19 C 707.21 135.03 715.56 134.27 723.45 131.72 C 727.38 129.28 731.38 126.87 735.07 124.07 C 742.00 117.36 748.23 109.29 750.49 99.73 C 751.11 92.89 752.37 85.88 750.57 79.11 C 749.91 73.72 746.82 69.18 744.46 64.44 C 741.48 58.73 736.87 54.12 732.25 49.73 C 729.06 46.68 724.96 44.92 721.18 42.75 C 713.15 37.98 703.29 38.07 694.33 39.17 M 518.56 46.41 C 508.21 52.21 497.25 56.90 487.26 63.32 C 478.71 69.18 469.56 74.12 461.18 80.25 C 452.93 86.67 444.15 92.40 436.11 99.11 C 430.45 104.58 423.61 108.58 417.60 113.63 C 412.92 117.60 408.41 121.80 403.49 125.49 C 397.11 130.50 390.10 134.67 383.99 140.02 C 370.66 150.98 356.57 161.12 344.49 173.50 C 331.96 185.97 318.66 197.83 308.04 212.03 C 302.98 218.95 297.53 225.57 292.63 232.60 C 283.70 244.82 275.72 257.70 267.19 270.20 C 258.47 283.86 250.58 298.04 243.45 312.60 C 242.45 314.93 241.24 317.36 241.49 319.96 C 243.14 321.93 244.50 324.65 246.98 325.59 C 250.62 325.55 254.21 324.67 257.73 323.80 C 264.98 321.32 272.60 320.12 280.19 319.21 C 294.79 317.96 309.09 313.86 323.84 314.56 C 323.70 313.25 323.54 311.95 323.37 310.65 C 318.73 308.57 313.75 310.30 308.95 310.55 C 303.52 310.78 298.33 312.53 292.97 313.26 C 282.51 314.87 271.88 315.57 261.54 317.89 C 256.69 320.12 251.41 320.85 246.11 320.71 C 247.04 314.47 250.57 309.09 253.28 303.52 C 261.68 287.29 271.14 271.61 281.54 256.59 C 290.72 242.29 300.84 228.65 311.15 215.16 C 319.85 203.65 330.16 193.52 340.45 183.46 C 345.89 178.21 351.06 172.68 356.85 167.82 C 364.84 160.76 373.38 154.37 381.51 147.49 C 394.00 137.61 407.25 128.72 419.30 118.27 C 425.48 112.75 432.42 108.17 438.77 102.84 C 448.19 94.73 458.62 87.90 468.58 80.49 C 482.80 71.16 497.09 61.78 512.53 54.57 C 520.08 50.57 527.58 46.19 536.01 44.29 C 535.42 42.89 534.82 41.49 534.22 40.11 C 528.67 41.23 523.72 44.19 518.56 46.41 M 537.64 41.99 C 537.44 49.46 537.64 56.95 539.33 64.26 C 539.37 72.55 541.35 80.71 541.27 89.00 C 540.38 95.97 540.75 103.00 541.07 109.99 C 539.77 123.63 541.11 137.37 539.64 151.00 C 538.40 168.28 540.63 185.58 539.40 202.86 C 537.94 212.51 538.63 222.29 538.59 232.00 C 538.68 240.67 538.30 249.34 538.65 258.01 C 539.75 272.51 539.85 287.09 539.68 301.64 C 532.27 301.85 524.85 301.78 517.44 301.70 C 517.35 303.39 517.29 305.09 517.25 306.79 C 524.44 306.59 531.64 306.22 538.85 306.29 C 540.48 306.35 541.97 307.14 543.54 307.57 C 542.99 297.00 544.24 286.36 542.57 275.86 C 542.79 264.88 541.04 253.98 541.64 243.01 C 542.01 230.65 540.67 218.23 542.39 205.93 C 542.56 199.29 543.78 192.64 542.91 186.01 C 542.00 172.67 542.01 159.26 543.29 145.96 C 543.61 137.31 543.08 128.64 543.67 120.00 C 544.72 109.36 543.95 98.66 544.42 88.00 C 544.24 80.98 542.85 74.03 542.62 67.01 C 542.56 62.65 541.07 58.44 541.24 54.06 C 541.33 50.24 541.19 46.41 540.36 42.67 C 539.68 42.50 538.32 42.16 537.64 41.99 M 768.70 52.62 C 765.03 53.88 760.87 54.62 758.23 57.73 C 758.68 58.53 759.58 60.13 760.03 60.93 C 767.57 56.90 775.95 54.99 783.88 51.92 C 789.64 49.71 795.65 48.25 801.53 46.41 C 801.55 45.03 801.53 43.65 801.53 42.27 C 790.30 44.75 779.69 49.30 768.70 52.62 M 961.98 47.05 C 954.93 48.12 949.78 53.42 943.47 56.24 C 938.52 58.38 934.43 62.03 931.15 66.25 C 926.54 71.71 924.95 78.89 923.06 85.60 C 919.24 82.95 916.02 79.54 912.18 76.94 C 901.42 74.00 889.87 73.48 878.94 75.95 C 870.72 79.03 862.94 83.47 856.33 89.27 C 852.71 92.29 848.63 95.06 846.39 99.34 C 842.00 106.18 841.67 114.52 840.01 122.26 C 839.20 124.41 840.90 126.20 841.84 127.96 C 849.24 123.33 856.52 118.53 863.79 113.71 C 869.43 109.90 876.48 109.88 883.02 109.51 C 888.88 109.42 895.33 109.06 900.33 112.70 C 893.33 116.68 888.45 123.29 883.56 129.51 C 880.29 133.49 879.29 138.62 878.43 143.56 C 877.27 150.35 874.93 157.04 875.49 164.02 C 876.12 173.41 876.63 183.20 881.13 191.70 C 883.26 196.11 886.71 199.65 890.13 203.09 C 894.03 207.02 897.74 211.33 902.55 214.19 C 903.31 203.20 901.25 192.08 903.39 181.17 C 904.09 170.55 907.16 160.25 911.51 150.57 C 916.17 140.21 924.83 132.32 933.85 125.73 C 937.54 122.79 942.46 123.26 946.86 122.49 C 954.52 125.62 958.71 133.12 965.11 137.92 C 967.39 140.00 969.11 142.60 970.92 145.08 C 974.89 150.82 979.08 156.40 982.58 162.44 C 987.49 170.07 991.11 178.42 995.88 186.13 C 998.87 191.26 1001.62 196.54 1003.97 202.01 C 1008.36 212.51 1013.31 222.86 1015.78 234.04 C 1019.44 246.29 1020.89 259.06 1024.35 271.36 C 1024.69 273.45 1024.60 275.59 1024.66 277.71 C 1011.81 282.92 999.08 288.43 986.76 294.82 C 980.03 298.32 973.05 301.46 966.75 305.71 C 959.03 309.82 951.69 314.58 944.41 319.41 C 923.23 334.04 903.30 350.54 885.22 368.88 C 874.96 380.33 863.68 391.07 855.39 404.11 C 856.20 405.39 857.23 406.50 858.68 407.05 C 864.66 396.59 873.31 388.16 881.11 379.10 C 884.31 375.53 887.99 372.38 890.76 368.43 L 891.35 368.44 C 913.58 346.17 938.65 326.80 965.54 310.47 C 975.04 305.26 984.44 299.83 994.27 295.25 C 1019.64 282.53 1046.49 272.85 1074.09 266.25 C 1079.99 264.97 1085.95 263.98 1091.79 262.38 C 1091.40 261.58 1090.64 259.97 1090.26 259.16 C 1081.86 260.10 1073.76 262.58 1065.61 264.66 C 1053.40 267.74 1041.43 271.65 1029.60 275.90 C 1024.86 258.20 1022.28 239.92 1016.38 222.53 C 1011.51 209.57 1006.12 196.74 999.24 184.71 C 994.48 176.69 990.55 168.19 985.59 160.28 C 981.23 153.10 976.32 146.28 971.47 139.43 C 969.12 136.26 966.79 132.75 963.03 131.14 C 959.48 129.49 957.72 125.70 954.53 123.59 C 951.35 121.47 948.04 119.58 944.93 117.37 C 940.29 119.08 934.91 118.71 930.81 121.80 C 925.80 125.75 921.02 130.01 916.54 134.54 C 909.61 142.08 905.83 151.84 902.82 161.47 C 900.66 167.58 900.28 174.06 899.45 180.42 C 897.70 189.30 898.71 198.38 898.51 207.36 C 895.78 205.22 893.24 202.86 890.58 200.65 L 890.71 199.98 C 883.20 193.49 880.79 183.34 879.68 173.90 C 879.24 167.34 878.59 160.64 880.09 154.16 C 881.16 149.52 881.94 144.82 883.05 140.19 C 884.73 133.16 890.14 128.00 894.82 122.82 C 897.59 119.72 900.98 117.28 904.66 115.38 C 906.83 114.57 905.74 111.72 904.12 110.91 C 895.12 103.70 882.75 105.43 872.08 106.46 C 860.97 107.10 854.01 117.00 844.28 121.08 C 845.08 113.07 846.87 104.59 852.47 98.47 C 860.17 90.89 868.97 84.14 879.14 80.28 C 889.91 77.50 901.41 77.90 912.03 81.08 C 915.01 82.92 917.67 85.27 920.24 87.64 C 921.32 89.64 922.24 91.76 924.12 93.19 C 926.88 89.54 927.40 84.89 928.90 80.69 C 930.67 75.63 933.08 70.69 936.65 66.66 C 941.73 61.39 948.53 58.38 954.78 54.77 C 960.26 51.46 966.67 50.49 972.77 48.90 C 982.98 46.31 993.60 47.34 1004.01 47.58 C 1012.70 47.78 1020.17 52.51 1027.68 56.30 C 1032.72 59.00 1036.33 63.59 1039.83 67.99 C 1030.71 65.77 1021.31 65.99 1012.00 66.53 C 1004.55 67.63 997.67 70.85 990.79 73.73 C 981.96 77.42 973.60 82.21 965.89 87.87 C 960.51 91.79 956.33 97.01 951.70 101.72 C 950.31 103.07 949.24 104.72 949.40 106.72 L 950.32 107.27 C 950.44 108.91 950.49 110.55 950.58 112.19 C 956.01 113.26 961.37 114.95 966.04 117.99 C 974.14 123.36 982.37 128.85 988.56 136.48 C 997.90 147.55 1008.59 157.83 1014.97 171.04 C 1019.53 180.53 1026.06 188.88 1030.66 198.34 C 1036.30 209.50 1041.78 220.74 1046.92 232.15 C 1051.77 241.72 1055.80 251.76 1057.85 262.33 C 1059.06 262.34 1060.27 262.34 1061.51 262.35 C 1061.56 260.24 1061.64 258.07 1060.87 256.07 C 1058.28 248.86 1056.10 241.46 1052.30 234.77 C 1047.54 224.55 1042.83 214.32 1037.67 204.30 C 1032.00 191.48 1023.63 180.15 1017.30 167.69 C 1014.25 161.67 1010.35 156.11 1005.86 151.08 C 998.60 143.03 992.16 134.17 984.07 126.91 C 978.61 122.65 973.11 118.36 967.17 114.79 C 962.48 111.93 956.94 111.03 952.18 108.39 C 955.66 104.47 959.27 100.67 962.80 96.80 C 969.41 89.70 978.16 85.21 986.51 80.51 C 995.08 76.54 1003.84 72.56 1013.17 70.75 C 1019.09 70.40 1025.06 70.22 1031.00 70.52 C 1036.29 71.45 1041.39 73.29 1046.56 74.74 C 1046.63 70.45 1043.26 67.29 1040.95 64.02 C 1036.47 59.48 1032.49 54.10 1026.57 51.34 C 1023.08 49.56 1019.63 47.71 1016.10 46.03 C 1011.09 43.65 1005.44 43.66 1000.04 43.18 C 995.40 42.40 990.68 42.48 986.00 42.48 C 977.76 42.51 970.01 45.63 961.98 47.05 M 612.85 52.11 C 618.32 52.86 623.64 54.56 628.36 57.46 C 631.72 59.57 635.72 59.88 639.59 59.71 C 639.60 58.68 639.63 57.65 639.67 56.62 C 629.80 56.37 622.32 48.85 612.70 47.43 C 610.43 48.58 612.24 50.50 612.85 52.11 M 194.17 82.73 C 194.65 84.06 195.13 85.38 195.63 86.70 C 202.44 85.71 209.74 84.12 216.36 86.84 C 219.06 87.98 222.20 88.75 224.12 91.13 C 225.13 94.78 223.94 98.71 221.44 101.48 C 216.61 107.03 210.20 111.01 203.43 113.78 C 203.48 114.65 203.57 116.40 203.61 117.27 C 208.62 116.88 213.01 119.50 217.31 121.66 C 224.53 127.16 228.94 136.50 227.33 145.60 C 225.33 152.40 219.61 157.55 213.23 160.26 C 210.38 161.74 206.59 162.57 205.39 165.95 C 206.33 169.08 210.30 167.96 212.77 168.55 C 220.53 170.03 226.34 176.41 229.91 183.11 C 232.30 186.95 231.63 191.62 231.13 195.88 C 228.54 204.42 221.33 211.30 212.95 214.11 C 206.80 215.10 200.46 214.60 194.39 213.28 C 194.40 214.61 194.42 215.95 194.46 217.29 C 200.52 218.82 206.89 218.94 213.09 218.36 C 220.50 216.45 226.51 210.86 230.57 204.55 C 233.88 199.69 233.46 193.61 234.23 188.04 C 232.26 177.58 224.76 168.30 214.97 164.15 C 221.63 160.95 227.33 155.36 229.33 148.10 C 230.85 138.65 228.77 128.13 221.84 121.18 C 219.44 117.66 215.41 116.14 211.83 114.17 C 217.48 110.34 223.73 106.25 226.10 99.50 C 226.66 96.27 226.79 92.87 226.17 89.65 C 224.43 84.56 218.32 83.53 213.93 81.72 C 207.40 80.97 200.54 80.96 194.17 82.73 M 147.53 105.28 C 129.86 109.26 112.04 112.60 94.56 117.42 C 86.93 119.57 79.00 120.40 71.09 120.46 C 71.39 121.75 70.79 123.46 71.94 124.42 C 85.89 124.61 99.15 119.86 112.56 116.69 C 133.79 111.60 155.55 108.20 175.89 99.95 C 178.87 98.60 183.45 97.55 182.80 93.33 C 171.50 98.53 159.67 102.56 147.53 105.28 M 598.25 100.55 C 598.42 101.82 598.60 103.10 598.79 104.37 C 601.28 104.59 603.82 104.64 606.27 104.06 C 614.43 102.28 622.57 100.38 630.87 99.32 C 630.70 98.00 630.57 96.67 630.42 95.35 C 619.62 96.62 609.13 99.98 598.25 100.55 M 755.30 105.68 C 755.35 107.33 755.45 108.98 755.61 110.63 C 761.75 109.25 768.16 109.04 774.38 110.00 C 782.27 111.20 788.29 118.40 796.61 117.66 C 796.65 116.58 796.70 115.50 796.76 114.42 C 791.26 113.67 786.38 111.04 781.54 108.51 C 773.40 104.42 764.08 105.38 755.30 105.68 M 636.36 145.37 C 633.90 148.14 630.35 151.22 631.63 155.34 C 632.51 155.43 633.40 155.51 634.30 155.60 C 638.69 147.02 647.01 141.76 653.69 135.19 C 653.29 134.43 652.49 132.92 652.10 132.17 C 646.09 135.57 641.21 140.55 636.36 145.37 M 96.76 141.64 C 88.62 143.62 80.27 144.42 72.01 145.62 C 72.36 147.60 73.44 150.20 75.96 149.43 C 92.50 147.08 108.47 141.90 124.97 139.31 C 130.58 138.10 136.61 138.20 141.84 135.63 C 142.12 135.09 142.69 134.01 142.97 133.48 C 127.35 134.50 111.95 137.91 96.76 141.64 M 728.69 136.93 C 728.73 138.37 728.73 140.03 730.00 141.00 C 737.34 147.99 744.13 155.54 751.58 162.42 C 754.08 164.46 755.10 168.18 758.43 169.14 C 758.36 167.57 758.62 165.85 757.49 164.58 C 753.86 158.94 748.04 155.32 743.52 150.49 C 739.27 146.44 735.98 141.46 731.46 137.69 C 730.77 137.50 729.38 137.12 728.69 136.93 M 693.41 145.92 C 693.31 148.97 693.83 151.99 694.14 155.02 C 694.66 160.77 692.69 166.37 692.66 172.09 C 692.50 174.31 693.99 176.08 695.11 177.83 C 696.00 176.38 696.26 174.71 696.18 173.04 C 696.10 166.65 698.36 160.39 697.37 153.98 C 696.91 151.01 696.73 147.14 693.41 145.92 M 72.77 166.22 C 72.38 166.24 71.60 166.30 71.21 166.32 C 71.21 167.81 71.22 169.29 71.24 170.79 C 75.67 169.78 80.21 169.55 84.69 168.85 C 97.13 169.07 109.58 168.14 122.01 168.96 C 134.01 169.39 145.86 172.03 157.89 171.78 C 157.84 170.66 157.79 169.54 157.74 168.42 C 132.84 163.35 107.26 163.91 81.98 164.53 C 78.89 164.77 75.23 163.80 72.77 166.22 M 93.89 193.71 C 86.72 194.19 79.43 193.84 72.41 195.61 C 72.32 196.92 72.22 198.23 72.17 199.55 C 78.48 200.04 84.76 198.99 91.07 198.77 C 103.73 198.15 116.30 196.14 128.99 195.96 C 137.12 196.38 145.26 197.26 153.24 198.86 C 158.49 199.82 162.99 203.06 168.27 203.88 C 168.76 204.12 169.72 204.60 170.20 204.84 C 170.65 204.09 171.55 202.60 172.00 201.85 C 167.70 199.86 163.48 197.56 158.90 196.25 C 157.40 195.26 155.77 194.41 153.98 194.10 C 145.09 192.36 136.07 191.13 127.00 191.22 C 115.90 190.98 104.95 193.15 93.89 193.71 M 404.28 228.24 C 401.58 231.06 398.26 233.85 397.57 237.93 C 396.62 242.67 399.09 247.35 402.36 250.64 C 404.65 252.94 407.21 255.68 410.72 255.72 C 410.62 256.83 410.53 257.94 410.43 259.05 C 402.86 260.59 397.84 267.15 394.98 273.88 C 391.40 283.98 391.08 294.78 390.23 305.36 C 387.58 300.52 386.74 294.92 383.90 290.16 C 379.57 281.51 372.59 274.12 363.82 269.92 C 367.60 268.37 372.00 267.07 374.38 263.49 C 376.88 258.15 379.02 251.61 376.11 246.01 C 373.25 239.45 366.59 233.54 359.00 234.64 C 354.10 235.49 348.73 236.32 345.06 240.01 C 340.34 243.89 338.21 250.09 337.65 255.98 C 337.84 262.73 343.81 266.73 349.16 269.56 C 344.80 271.50 340.06 273.10 336.93 276.92 C 329.85 285.16 328.25 296.53 328.15 307.04 C 326.60 316.12 327.89 325.38 326.56 334.46 C 319.12 335.92 311.51 335.34 303.99 335.86 C 296.94 336.77 289.63 335.68 282.76 337.94 C 280.75 339.19 281.37 341.96 281.24 343.97 C 281.81 354.93 283.43 365.84 286.28 376.45 C 290.49 396.72 299.69 415.41 308.06 434.18 C 296.43 427.67 286.56 418.20 278.99 407.27 C 277.50 407.53 275.72 407.41 275.07 409.10 C 272.58 412.85 269.82 416.43 266.56 419.55 C 262.11 423.80 258.26 428.95 252.56 431.62 C 244.64 435.56 235.96 438.86 226.98 438.42 C 218.31 437.89 209.78 434.50 203.28 428.73 C 198.64 423.95 194.47 418.74 190.55 413.36 C 189.07 413.37 187.60 413.43 186.13 413.51 C 188.03 418.06 191.92 421.25 194.79 425.14 C 199.27 431.56 206.42 435.49 213.58 438.23 C 222.34 441.00 231.88 442.23 240.86 439.67 C 248.51 437.44 256.30 434.64 262.46 429.41 C 267.93 424.27 273.08 418.80 277.90 413.05 C 282.33 416.98 285.59 422.09 290.41 425.61 C 294.56 428.76 298.48 432.26 303.00 434.89 C 312.88 440.40 324.42 444.10 335.81 441.97 C 342.90 440.97 348.90 436.79 355.45 434.21 C 362.13 431.45 366.77 425.70 371.99 420.95 C 375.04 418.22 377.62 415.03 380.32 411.96 C 387.01 423.84 399.61 430.30 411.63 435.54 C 420.99 438.69 431.70 439.97 441.00 435.96 C 448.01 432.94 454.96 429.65 461.24 425.26 C 470.41 418.93 477.81 410.49 485.95 402.97 C 489.56 412.60 497.40 419.54 504.73 426.34 C 513.46 433.12 523.94 437.94 534.97 439.24 C 549.04 440.32 563.63 438.02 576.02 431.00 C 585.18 426.25 592.09 418.42 599.78 411.75 C 607.54 421.57 618.65 427.77 629.61 433.35 C 640.38 438.16 652.23 440.50 664.02 439.67 C 672.61 439.95 680.52 436.27 688.30 433.14 C 695.49 430.05 702.97 427.16 708.97 421.97 C 715.19 416.54 721.18 410.83 726.89 404.86 C 728.51 403.41 729.04 401.32 728.73 399.22 C 727.23 399.29 725.36 398.99 724.53 400.57 C 719.42 407.09 712.97 412.33 707.07 418.08 C 700.69 424.00 692.47 427.22 684.58 430.54 C 679.74 432.40 674.99 434.58 669.92 435.71 C 651.14 439.27 631.22 433.93 616.18 422.29 C 618.22 416.66 621.89 411.81 623.90 406.17 C 626.39 399.49 629.52 393.02 631.21 386.07 C 633.74 373.53 634.44 360.74 635.53 348.03 C 635.36 342.30 636.57 336.69 637.24 331.04 C 636.69 329.24 634.72 328.91 633.29 328.09 C 632.23 334.30 631.19 340.53 631.37 346.85 C 630.10 358.23 629.73 369.72 627.67 381.01 C 626.55 389.38 622.61 396.95 619.66 404.76 C 617.63 410.06 614.52 414.82 612.05 419.90 C 607.73 416.08 603.65 411.78 601.55 406.31 C 601.20 404.53 599.37 404.64 597.98 404.33 C 596.38 408.04 594.11 411.43 590.99 414.03 C 584.68 419.54 578.78 426.12 570.61 428.86 C 566.40 431.65 561.68 433.53 556.74 434.59 C 543.89 437.49 529.70 437.75 517.78 431.42 C 509.57 427.72 503.62 420.80 497.49 414.48 C 493.09 409.93 490.85 403.94 488.53 398.19 C 483.66 397.25 480.90 401.89 477.86 404.79 C 465.55 418.28 450.44 429.87 432.70 435.01 C 425.39 436.16 417.63 435.29 410.81 432.38 C 402.24 428.04 393.10 423.64 387.38 415.58 C 385.13 412.61 384.65 408.63 382.11 405.87 C 381.06 405.44 379.90 405.49 378.80 405.37 C 374.86 413.52 367.61 419.07 361.45 425.42 C 358.18 428.67 354.16 431.07 349.88 432.76 C 344.42 434.97 339.40 438.52 333.44 439.31 C 327.50 440.05 321.05 440.21 315.62 437.34 C 312.68 433.59 311.38 428.90 309.00 424.82 C 305.26 418.20 303.28 410.81 299.94 404.02 C 293.89 390.96 291.04 376.79 287.88 362.84 C 286.69 356.15 286.41 349.35 285.47 342.62 C 292.60 339.50 300.47 340.87 308.00 340.35 C 328.33 338.70 348.74 338.62 369.04 336.62 C 377.63 336.76 386.13 335.57 394.70 335.36 C 401.08 334.29 407.57 334.77 413.96 333.79 C 422.31 333.24 430.73 333.91 439.04 332.74 C 448.02 332.43 456.97 331.48 465.96 331.29 C 477.90 329.89 489.97 331.20 501.91 329.76 C 510.60 329.36 519.33 329.77 527.99 328.80 C 540.33 328.53 552.71 329.03 565.01 327.77 C 568.66 327.58 572.32 327.63 575.96 327.36 C 587.58 325.91 599.32 326.41 611.00 326.15 C 619.47 325.14 627.99 326.19 636.47 325.43 C 636.54 324.43 636.63 323.43 636.73 322.44 C 624.56 320.48 612.25 321.77 600.00 321.55 C 591.96 321.30 584.02 322.63 576.00 322.75 C 567.85 324.10 559.56 323.14 551.40 324.32 C 541.19 324.67 530.96 324.65 520.74 324.69 C 520.35 324.48 519.57 324.07 519.18 323.86 C 514.03 308.81 515.11 292.34 509.45 277.40 C 506.07 267.91 501.06 258.07 491.95 252.94 C 494.43 251.74 497.04 250.79 499.48 249.47 C 504.25 243.92 504.77 234.84 499.77 229.24 C 494.65 221.40 482.16 218.10 475.00 225.02 C 469.77 229.35 470.00 236.89 471.23 242.95 C 471.63 246.07 474.20 248.13 475.96 250.52 C 471.69 253.30 466.50 255.22 463.81 259.84 C 456.90 269.60 456.42 281.89 454.05 293.19 C 451.29 285.79 449.60 277.70 444.41 271.50 C 441.16 267.05 436.38 264.21 431.93 261.14 C 430.46 260.09 428.75 259.48 426.97 259.23 C 426.17 258.70 425.38 258.17 424.59 257.64 C 425.28 257.15 425.96 256.65 426.66 256.16 C 430.68 254.12 435.75 253.45 438.61 249.65 C 441.12 246.68 441.87 242.70 442.38 238.96 C 441.77 227.02 428.71 217.76 417.21 221.00 C 412.57 222.71 407.79 224.61 404.28 228.24 M 744.60 390.79 C 737.89 415.91 733.29 441.54 728.29 467.04 C 724.64 483.19 721.82 499.53 719.92 515.99 C 717.94 512.54 716.24 508.94 714.59 505.33 C 711.96 499.51 710.86 493.16 708.74 487.17 C 708.25 485.25 706.38 484.37 704.95 483.29 C 703.99 484.25 702.99 485.27 702.82 486.68 C 700.35 497.68 698.89 508.88 696.79 519.95 C 694.94 530.80 691.97 541.42 690.10 552.26 C 688.61 548.53 688.03 544.43 686.00 540.94 C 685.28 539.44 683.46 539.64 682.12 539.24 C 680.94 544.24 680.56 549.38 679.71 554.45 C 676.73 575.77 672.50 596.90 668.90 618.12 C 668.16 623.58 666.93 629.03 667.19 634.57 C 668.59 634.61 670.00 634.66 671.42 634.70 C 671.53 631.16 671.58 627.60 672.15 624.10 C 674.66 608.11 677.51 592.18 680.50 576.27 C 682.22 567.11 682.97 557.80 684.85 548.67 C 686.69 553.94 687.37 559.70 690.60 564.41 C 691.93 564.51 693.27 564.61 694.61 564.70 C 692.72 552.31 697.09 540.27 699.42 528.26 C 702.20 516.20 703.19 503.80 706.24 491.80 C 708.75 501.50 713.13 510.53 717.61 519.45 C 718.79 521.67 721.32 522.31 723.56 522.94 C 725.11 507.09 727.34 491.30 730.54 475.69 C 733.58 462.30 735.96 448.78 738.62 435.31 C 742.55 417.58 745.56 399.53 752.02 382.48 C 754.95 391.75 756.02 401.46 757.82 410.98 C 759.64 418.40 760.83 426.01 763.67 433.14 C 766.22 439.16 765.92 445.86 767.75 452.08 C 770.39 460.84 771.66 470.09 775.63 478.41 C 776.24 480.18 778.35 479.64 779.80 479.99 C 780.65 472.00 785.20 465.20 787.50 457.64 C 788.20 456.60 787.99 454.15 789.75 454.47 C 794.55 463.80 797.46 473.92 801.11 483.71 C 806.18 497.58 809.22 512.19 815.55 525.58 C 816.20 527.47 818.08 528.23 819.75 529.03 C 821.31 524.77 822.81 520.49 824.81 516.41 C 826.03 515.53 827.07 514.44 828.21 513.47 C 831.37 522.26 834.41 531.11 836.80 540.15 C 842.91 560.14 850.15 579.76 856.05 599.81 C 860.58 613.45 863.75 627.54 869.39 640.79 C 871.56 645.89 872.63 651.52 875.74 656.18 C 876.83 657.59 879.18 659.76 880.44 657.34 C 876.45 651.11 874.93 643.80 871.88 637.15 C 866.46 623.48 863.27 609.07 858.53 595.17 C 853.65 578.77 847.77 562.70 842.53 546.41 C 838.97 533.62 835.02 520.92 830.29 508.52 C 829.03 508.49 827.78 508.28 826.54 508.49 C 823.63 510.70 821.43 513.73 819.83 517.00 C 819.06 518.29 818.30 519.58 817.53 520.88 C 811.98 507.86 808.92 493.98 803.93 480.76 C 799.97 469.45 795.87 458.16 790.64 447.37 C 789.55 447.35 788.47 447.34 787.40 447.33 C 783.19 455.01 780.93 463.57 776.89 471.34 C 774.79 465.53 773.96 459.37 772.13 453.49 C 770.36 447.78 770.55 441.67 768.62 436.01 C 760.62 416.44 761.10 394.70 754.17 374.82 C 753.03 374.28 751.90 373.75 750.77 373.23 C 747.08 378.35 746.91 385.03 744.60 390.79 M 1074.95 396.02 C 1067.46 408.88 1054.13 416.87 1040.98 422.96 C 1032.78 427.03 1023.65 428.27 1014.81 430.17 C 1009.47 431.13 1004.00 430.42 998.73 429.38 C 991.68 428.10 985.50 424.19 979.62 420.30 C 974.29 415.68 968.53 411.40 964.37 405.61 C 962.14 402.98 960.61 399.41 957.11 398.23 C 950.83 409.31 939.46 416.17 927.93 420.72 C 920.38 422.87 912.97 426.05 905.05 426.42 C 891.06 426.08 877.22 421.95 865.23 414.75 C 855.06 409.39 845.97 402.25 837.52 394.50 C 835.90 392.87 833.92 391.66 831.66 391.22 C 827.55 398.56 823.36 406.48 815.93 410.98 C 809.11 415.93 800.32 417.11 792.12 416.29 C 786.52 415.34 781.74 411.99 777.15 408.85 C 772.88 405.86 771.01 400.82 768.24 396.62 C 766.97 396.02 765.58 396.56 764.29 396.67 C 765.82 399.71 767.43 402.74 769.50 405.47 C 772.66 409.41 777.03 412.08 781.32 414.62 C 785.24 416.84 789.39 419.07 793.98 419.41 C 800.38 419.80 806.94 419.40 812.97 417.04 C 822.33 413.12 829.50 405.15 833.70 396.04 C 836.59 396.90 838.69 399.18 840.97 401.03 C 845.74 405.32 850.97 409.07 856.40 412.50 C 866.90 418.95 877.97 424.95 890.13 427.56 C 897.24 428.94 904.59 430.29 911.82 428.91 C 925.35 425.98 938.82 421.38 949.99 412.95 C 953.18 410.18 955.95 406.96 959.02 404.05 C 968.44 415.06 979.49 425.24 993.07 430.80 C 1002.35 433.86 1012.52 434.80 1022.01 432.11 C 1039.75 429.72 1055.94 420.84 1069.60 409.59 C 1075.00 404.87 1078.04 398.22 1082.77 392.93 C 1082.64 392.38 1082.38 391.28 1082.25 390.73 C 1081.26 390.57 1080.29 390.42 1079.33 390.27 C 1077.80 392.13 1076.28 394.01 1074.95 396.02 M 362.76 448.48 C 358.81 458.61 355.71 469.08 353.44 479.72 C 350.54 492.45 344.33 504.02 338.86 515.76 C 332.29 528.38 325.41 540.84 318.19 553.11 C 309.57 568.11 299.44 582.18 288.88 595.87 C 276.48 612.90 262.99 629.18 248.02 644.03 C 236.97 654.98 226.46 666.52 214.55 676.57 C 213.56 677.62 212.08 677.60 210.76 677.79 C 210.52 677.25 210.05 676.17 209.82 675.64 C 203.17 669.98 192.11 675.62 191.67 683.98 C 191.97 686.71 193.19 689.23 193.76 691.91 C 193.00 693.34 191.59 694.28 190.40 695.34 C 184.40 700.03 178.61 704.97 172.82 709.91 C 167.15 714.57 160.84 718.44 155.56 723.55 C 149.58 729.55 142.41 734.14 135.72 739.28 C 131.64 734.32 127.59 729.20 124.63 723.49 C 122.92 717.63 121.36 711.61 121.09 705.48 C 122.28 704.64 123.47 703.80 124.66 702.98 C 123.18 699.32 121.67 695.67 120.35 691.96 C 118.39 692.07 116.95 693.27 115.87 694.80 C 113.93 697.46 109.67 698.69 110.25 702.62 C 111.63 703.09 113.03 703.53 114.44 703.93 C 116.17 715.26 117.28 727.04 122.71 737.36 C 127.51 745.56 134.25 752.54 142.03 757.96 C 152.78 766.24 166.42 769.04 179.44 771.63 C 178.72 774.35 177.24 778.21 180.35 780.02 C 181.57 781.52 183.09 780.17 184.01 779.16 C 187.02 775.78 192.18 775.68 195.10 772.15 C 191.75 768.44 188.17 764.95 184.65 761.42 C 181.34 760.93 179.98 764.45 179.19 767.00 C 171.06 764.05 163.61 759.53 155.66 756.16 C 150.03 753.83 144.83 750.48 140.52 746.17 C 147.55 739.19 155.01 732.64 163.07 726.88 C 166.37 724.59 169.20 721.74 172.25 719.15 C 181.10 711.96 187.75 702.42 197.00 695.69 C 200.31 697.15 203.94 698.32 207.58 697.41 C 214.35 696.28 219.38 689.34 218.64 682.59 C 217.51 681.87 216.36 681.74 215.19 682.19 C 214.26 684.21 214.95 686.73 213.48 688.55 C 210.61 692.80 204.91 694.62 200.03 693.28 C 197.06 691.74 194.78 688.58 195.31 685.11 C 195.08 681.92 197.96 679.84 200.34 678.32 C 202.91 676.67 205.99 677.85 208.79 677.97 C 209.46 679.56 210.17 681.14 210.89 682.73 C 214.08 682.23 216.57 679.98 218.86 677.88 C 223.83 673.18 228.85 668.54 233.74 663.75 C 246.46 650.14 260.27 637.53 272.08 623.09 C 282.99 609.89 293.12 596.09 303.39 582.40 C 311.94 570.36 319.65 557.75 327.03 544.96 C 336.35 527.99 346.08 511.11 352.78 492.88 C 356.81 481.95 358.15 470.23 362.53 459.42 C 363.67 455.86 366.11 452.53 365.47 448.63 C 364.56 448.57 363.66 448.52 362.76 448.48 Z" />
<path fill="#ffffff" opacity="1.00" d=" M 697.34 43.89 C 702.75 42.57 708.53 43.15 714.05 43.69 C 729.39 48.32 741.74 61.00 746.91 76.05 C 747.64 79.96 748.91 83.97 747.94 87.96 C 747.41 90.83 747.65 93.77 747.35 96.67 C 745.87 103.20 742.54 109.16 738.15 114.18 C 734.78 119.17 729.91 122.77 724.79 125.79 C 720.50 129.04 714.98 129.50 709.87 130.52 C 704.57 130.92 699.33 132.97 694.00 132.01 C 691.09 131.56 688.14 131.77 685.22 131.54 C 675.15 129.59 665.46 125.08 658.05 117.89 C 651.20 110.27 648.99 99.26 650.67 89.33 C 652.75 81.06 655.80 72.88 660.81 65.91 C 666.94 55.47 677.86 48.89 689.11 45.17 C 691.73 44.03 694.73 45.05 697.34 43.89 Z" />
<path fill="#ffffff" opacity="1.00" d=" M 479.52 253.66 C 485.56 251.71 491.42 255.33 495.68 259.32 C 501.80 266.19 504.80 275.13 507.35 283.81 C 509.17 290.54 509.61 297.54 510.82 304.39 C 511.85 310.40 512.10 316.72 514.82 322.30 C 516.62 324.44 519.58 324.81 522.17 325.35 C 512.39 325.39 502.57 325.27 492.85 326.34 C 482.07 326.31 471.29 326.65 460.51 326.74 C 460.23 316.13 457.47 305.65 458.74 294.99 C 460.24 284.87 461.20 274.35 465.98 265.12 C 468.69 259.61 474.08 256.10 479.52 253.66 Z" />
<path fill="#ffffff" opacity="1.00" d=" M 406.48 265.46 C 413.19 260.58 422.26 260.31 429.84 263.20 C 436.96 266.90 442.85 273.03 445.57 280.66 C 448.37 288.60 450.69 296.70 453.21 304.74 C 455.22 312.10 455.45 319.77 456.58 327.28 C 449.94 327.99 443.29 328.54 436.61 328.70 C 427.45 329.90 418.18 329.09 409.00 329.89 C 404.84 330.55 400.63 330.52 396.44 330.75 C 394.64 324.97 396.00 318.87 394.83 313.00 C 394.11 308.98 395.19 304.99 395.39 300.99 C 395.45 294.10 396.27 287.21 397.79 280.50 C 399.06 274.76 401.96 269.29 406.48 265.46 Z" />
<path fill="#ffffff" opacity="1.00" d=" M 343.11 277.20 C 349.14 273.38 356.67 271.05 363.70 273.23 C 371.62 276.56 376.70 284.03 380.47 291.42 C 384.25 299.85 387.11 308.79 388.08 318.01 C 388.47 322.44 389.19 326.84 389.63 331.27 C 380.41 331.87 371.21 332.53 361.98 332.69 C 351.91 334.06 341.72 333.66 331.58 333.80 C 331.55 325.86 331.20 317.88 332.41 309.99 C 332.41 302.53 332.97 294.94 335.73 287.94 C 337.39 283.91 339.43 279.75 343.11 277.20 Z" />
</g>
<g id="#2e2e2eff">
<path fill="#2e2e2e" opacity="1.00" d=" M 756.47 3.44 C 757.99 3.44 759.53 3.46 761.07 3.52 C 759.28 7.64 755.40 10.31 753.23 14.22 C 748.70 21.88 743.02 28.74 737.95 36.03 C 737.11 34.81 734.91 33.78 735.63 32.02 C 737.17 28.61 740.14 26.19 742.33 23.23 C 747.42 16.90 751.04 9.51 756.47 3.44 Z" />
<path fill="#2e2e2e" opacity="1.00" d=" M 598.25 100.55 C 609.13 99.98 619.62 96.62 630.42 95.35 C 630.57 96.67 630.70 98.00 630.87 99.32 C 622.57 100.38 614.43 102.28 606.27 104.06 C 603.82 104.64 601.28 104.59 598.79 104.37 C 598.60 103.10 598.42 101.82 598.25 100.55 Z" />
<path fill="#2e2e2e" opacity="1.00" d=" M 744.60 390.79 C 746.91 385.03 747.08 378.35 750.77 373.23 C 751.90 373.75 753.03 374.28 754.17 374.82 C 761.10 394.70 760.62 416.44 768.62 436.01 C 770.55 441.67 770.36 447.78 772.13 453.49 C 773.96 459.37 774.79 465.53 776.89 471.34 C 780.93 463.57 783.19 455.01 787.40 447.33 C 788.47 447.34 789.55 447.35 790.64 447.37 C 795.87 458.16 799.97 469.45 803.93 480.76 C 808.92 493.98 811.98 507.86 817.53 520.88 C 818.30 519.58 819.06 518.29 819.83 517.00 C 821.49 516.82 823.15 516.66 824.81 516.41 C 822.81 520.49 821.31 524.77 819.75 529.03 C 818.08 528.23 816.20 527.47 815.55 525.58 C 809.22 512.19 806.18 497.58 801.11 483.71 C 797.46 473.92 794.55 463.80 789.75 454.47 C 787.99 454.15 788.20 456.60 787.50 457.64 C 785.20 465.20 780.65 472.00 779.80 479.99 C 778.35 479.64 776.24 480.18 775.63 478.41 C 771.66 470.09 770.39 460.84 767.75 452.08 C 765.92 445.86 766.22 439.16 763.67 433.14 C 760.83 426.01 759.64 418.40 757.82 410.98 C 756.02 401.46 754.95 391.75 752.02 382.48 C 745.56 399.53 742.55 417.58 738.62 435.31 C 735.96 448.78 733.58 462.30 730.54 475.69 C 727.34 491.30 725.11 507.09 723.56 522.94 C 721.32 522.31 718.79 521.67 717.61 519.45 C 713.13 510.53 708.75 501.50 706.24 491.80 C 703.19 503.80 702.20 516.20 699.42 528.26 C 697.09 540.27 692.72 552.31 694.61 564.70 C 693.27 564.61 691.93 564.51 690.60 564.41 C 687.37 559.70 686.69 553.94 684.85 548.67 C 682.97 557.80 682.22 567.11 680.50 576.27 C 677.51 592.18 674.66 608.11 672.15 624.10 C 671.58 627.60 671.53 631.16 671.42 634.70 C 670.00 634.66 668.59 634.61 667.19 634.57 C 666.93 629.03 668.16 623.58 668.90 618.12 C 672.50 596.90 676.73 575.77 679.71 554.45 C 680.56 549.38 680.94 544.24 682.12 539.24 C 683.46 539.64 685.28 539.44 686.00 540.94 C 688.03 544.43 688.61 548.53 690.10 552.26 C 691.97 541.42 694.94 530.80 696.79 519.95 C 698.89 508.88 700.35 497.68 702.82 486.68 C 702.99 485.27 703.99 484.25 704.95 483.29 C 706.38 484.37 708.25 485.25 708.74 487.17 C 710.86 493.16 711.96 499.51 714.59 505.33 C 716.24 508.94 717.94 512.54 719.92 515.99 C 721.82 499.53 724.64 483.19 728.29 467.04 C 733.29 441.54 737.89 415.91 744.60 390.79 Z" />
</g>
<g id="#343434ff">
<path fill="#343434" opacity="1.00" d=" M 665.38 7.04 C 669.27 8.60 670.35 13.14 672.63 16.26 C 674.49 19.93 678.19 22.70 678.76 26.94 C 674.63 25.40 672.72 21.14 670.27 17.81 C 668.24 14.44 665.19 11.25 665.38 7.04 Z" />
</g>
<g id="#2b2b2bff">
<path fill="#2b2b2b" opacity="1.00" d=" M 694.33 39.17 C 703.29 38.07 713.15 37.98 721.18 42.75 C 724.96 44.92 729.06 46.68 732.25 49.73 C 736.87 54.12 741.48 58.73 744.46 64.44 C 746.82 69.18 749.91 73.72 750.57 79.11 C 752.37 85.88 751.11 92.89 750.49 99.73 C 748.23 109.29 742.00 117.36 735.07 124.07 C 731.38 126.87 727.38 129.28 723.45 131.72 C 715.56 134.27 707.21 135.03 699.04 136.19 C 694.80 135.55 690.52 135.75 686.28 135.38 C 675.16 132.86 664.26 128.04 656.14 119.86 C 649.99 113.53 647.43 104.62 646.67 96.03 C 646.33 87.04 649.50 78.31 653.36 70.33 C 657.99 61.17 664.58 52.75 673.52 47.46 C 680.12 43.93 687.10 41.13 694.33 39.17 M 697.34 43.89 C 694.73 45.05 691.73 44.03 689.11 45.17 C 677.86 48.89 666.94 55.47 660.81 65.91 C 655.80 72.88 652.75 81.06 650.67 89.33 C 648.99 99.26 651.20 110.27 658.05 117.89 C 665.46 125.08 675.15 129.59 685.22 131.54 C 688.14 131.77 691.09 131.56 694.00 132.01 C 699.33 132.97 704.57 130.92 709.87 130.52 C 714.98 129.50 720.50 129.04 724.79 125.79 C 729.91 122.77 734.78 119.17 738.15 114.18 C 742.54 109.16 745.87 103.20 747.35 96.67 C 747.65 93.77 747.41 90.83 747.94 87.96 C 748.91 83.97 747.64 79.96 746.91 76.05 C 741.74 61.00 729.39 48.32 714.05 43.69 C 708.53 43.15 702.75 42.57 697.34 43.89 Z" />
<path fill="#2b2b2b" opacity="1.00" d=" M 194.17 82.73 C 200.54 80.96 207.40 80.97 213.93 81.72 C 218.32 83.53 224.43 84.56 226.17 89.65 C 226.79 92.87 226.66 96.27 226.10 99.50 C 223.73 106.25 217.48 110.34 211.83 114.17 C 215.41 116.14 219.44 117.66 221.84 121.18 C 228.77 128.13 230.85 138.65 229.33 148.10 C 227.33 155.36 221.63 160.95 214.97 164.15 C 224.76 168.30 232.26 177.58 234.23 188.04 C 233.46 193.61 233.88 199.69 230.57 204.55 C 226.51 210.86 220.50 216.45 213.09 218.36 C 206.89 218.94 200.52 218.82 194.46 217.29 C 194.42 215.95 194.40 214.61 194.39 213.28 C 200.46 214.60 206.80 215.10 212.95 214.11 C 221.33 211.30 228.54 204.42 231.13 195.88 C 231.63 191.62 232.30 186.95 229.91 183.11 C 226.34 176.41 220.53 170.03 212.77 168.55 C 210.30 167.96 206.33 169.08 205.39 165.95 C 206.59 162.57 210.38 161.74 213.23 160.26 C 219.61 157.55 225.33 152.40 227.33 145.60 C 228.94 136.50 224.53 127.16 217.31 121.66 C 213.01 119.50 208.62 116.88 203.61 117.27 C 203.57 116.40 203.48 114.65 203.43 113.78 C 210.20 111.01 216.61 107.03 221.44 101.48 C 223.94 98.71 225.13 94.78 224.12 91.13 C 222.20 88.75 219.06 87.98 216.36 86.84 C 209.74 84.12 202.44 85.71 195.63 86.70 C 195.13 85.38 194.65 84.06 194.17 82.73 Z" />
</g>
<g id="#2f2f2fff">
<path fill="#2f2f2f" opacity="1.00" d=" M 518.56 46.41 C 523.72 44.19 528.67 41.23 534.22 40.11 C 534.82 41.49 535.42 42.89 536.01 44.29 C 527.58 46.19 520.08 50.57 512.53 54.57 C 497.09 61.78 482.80 71.16 468.58 80.49 C 458.62 87.90 448.19 94.73 438.77 102.84 C 432.42 108.17 425.48 112.75 419.30 118.27 C 407.25 128.72 394.00 137.61 381.51 147.49 C 373.38 154.37 364.84 160.76 356.85 167.82 C 351.06 172.68 345.89 178.21 340.45 183.46 C 330.16 193.52 319.85 203.65 311.15 215.16 C 300.84 228.65 290.72 242.29 281.54 256.59 C 271.14 271.61 261.68 287.29 253.28 303.52 C 250.57 309.09 247.04 314.47 246.11 320.71 C 251.41 320.85 256.69 320.12 261.54 317.89 C 271.88 315.57 282.51 314.87 292.97 313.26 C 298.33 312.53 303.52 310.78 308.95 310.55 C 313.75 310.30 318.73 308.57 323.37 310.65 C 323.54 311.95 323.70 313.25 323.84 314.56 C 309.09 313.86 294.79 317.96 280.19 319.21 C 272.60 320.12 264.98 321.32 257.73 323.80 C 254.21 324.67 250.62 325.55 246.98 325.59 C 244.50 324.65 243.14 321.93 241.49 319.96 C 241.24 317.36 242.45 314.93 243.45 312.60 C 250.58 298.04 258.47 283.86 267.19 270.20 C 275.72 257.70 283.70 244.82 292.63 232.60 C 297.53 225.57 302.98 218.95 308.04 212.03 C 318.66 197.83 331.96 185.97 344.49 173.50 C 356.57 161.12 370.66 150.98 383.99 140.02 C 390.10 134.67 397.11 130.50 403.49 125.49 C 408.41 121.80 412.92 117.60 417.60 113.63 C 423.61 108.58 430.45 104.58 436.11 99.11 C 444.15 92.40 452.93 86.67 461.18 80.25 C 469.56 74.12 478.71 69.18 487.26 63.32 C 497.25 56.90 508.21 52.21 518.56 46.41 Z" />
<path fill="#2f2f2f" opacity="1.00" d=" M 362.76 448.48 C 363.66 448.52 364.56 448.57 365.47 448.63 C 366.11 452.53 363.67 455.86 362.53 459.42 C 358.15 470.23 356.81 481.95 352.78 492.88 C 346.08 511.11 336.35 527.99 327.03 544.96 C 319.65 557.75 311.94 570.36 303.39 582.40 C 293.12 596.09 282.99 609.89 272.08 623.09 C 260.27 637.53 246.46 650.14 233.74 663.75 C 228.85 668.54 223.83 673.18 218.86 677.88 C 216.57 679.98 214.08 682.23 210.89 682.73 C 210.17 681.14 209.46 679.56 208.79 677.97 C 209.28 677.92 210.26 677.83 210.76 677.79 C 212.08 677.60 213.56 677.62 214.55 676.57 C 226.46 666.52 236.97 654.98 248.02 644.03 C 262.99 629.18 276.48 612.90 288.88 595.87 C 299.44 582.18 309.57 568.11 318.19 553.11 C 325.41 540.84 332.29 528.38 338.86 515.76 C 344.33 504.02 350.54 492.45 353.44 479.72 C 355.71 469.08 358.81 458.61 362.76 448.48 Z" />
</g>
<g id="#2d2d2dff">
<path fill="#2d2d2d" opacity="1.00" d=" M 537.64 41.99 C 538.32 42.16 539.68 42.50 540.36 42.67 C 541.19 46.41 541.33 50.24 541.24 54.06 C 541.07 58.44 542.56 62.65 542.62 67.01 C 542.85 74.03 544.24 80.98 544.42 88.00 C 543.95 98.66 544.72 109.36 543.67 120.00 C 543.08 128.64 543.61 137.31 543.29 145.96 C 542.01 159.26 542.00 172.67 542.91 186.01 C 543.78 192.64 542.56 199.29 542.39 205.93 C 540.67 218.23 542.01 230.65 541.64 243.01 C 541.04 253.98 542.79 264.88 542.57 275.86 C 544.24 286.36 542.99 297.00 543.54 307.57 C 541.97 307.14 540.48 306.35 538.85 306.29 C 531.64 306.22 524.44 306.59 517.25 306.79 C 517.29 305.09 517.35 303.39 517.44 301.70 C 524.85 301.78 532.27 301.85 539.68 301.64 C 539.85 287.09 539.75 272.51 538.65 258.01 C 538.30 249.34 538.68 240.67 538.59 232.00 C 538.63 222.29 537.94 212.51 539.40 202.86 C 540.63 185.58 538.40 168.28 539.64 151.00 C 541.11 137.37 539.77 123.63 541.07 109.99 C 540.75 103.00 540.38 95.97 541.27 89.00 C 541.35 80.71 539.37 72.55 539.33 64.26 C 537.64 56.95 537.44 49.46 537.64 41.99 Z" />
</g>
<g id="#323232ff">
<path fill="#323232" opacity="1.00" d=" M 768.70 52.62 C 779.69 49.30 790.30 44.75 801.53 42.27 C 801.53 43.65 801.55 45.03 801.53 46.41 C 795.65 48.25 789.64 49.71 783.88 51.92 C 775.95 54.99 767.57 56.90 760.03 60.93 C 759.58 60.13 758.68 58.53 758.23 57.73 C 760.87 54.62 765.03 53.88 768.70 52.62 Z" />
<path fill="#323232" opacity="1.00" d=" M 755.30 105.68 C 764.08 105.38 773.40 104.42 781.54 108.51 C 786.38 111.04 791.26 113.67 796.76 114.42 C 796.70 115.50 796.65 116.58 796.61 117.66 C 788.29 118.40 782.27 111.20 774.38 110.00 C 768.16 109.04 761.75 109.25 755.61 110.63 C 755.45 108.98 755.35 107.33 755.30 105.68 Z" />
</g>
<g id="#313131ff">
<path fill="#313131" opacity="1.00" d=" M 961.98 47.05 C 970.01 45.63 977.76 42.51 986.00 42.48 C 990.68 42.48 995.40 42.40 1000.04 43.18 C 1005.44 43.66 1011.09 43.65 1016.10 46.03 C 1019.63 47.71 1023.08 49.56 1026.57 51.34 C 1032.49 54.10 1036.47 59.48 1040.95 64.02 C 1043.26 67.29 1046.63 70.45 1046.56 74.74 C 1041.39 73.29 1036.29 71.45 1031.00 70.52 C 1025.06 70.22 1019.09 70.40 1013.17 70.75 C 1003.84 72.56 995.08 76.54 986.51 80.51 C 978.16 85.21 969.41 89.70 962.80 96.80 C 959.27 100.67 955.66 104.47 952.18 108.39 C 951.72 108.11 950.79 107.55 950.32 107.27 L 949.40 106.72 C 949.24 104.72 950.31 103.07 951.70 101.72 C 956.33 97.01 960.51 91.79 965.89 87.87 C 973.60 82.21 981.96 77.42 990.79 73.73 C 997.67 70.85 1004.55 67.63 1012.00 66.53 C 1021.31 65.99 1030.71 65.77 1039.83 67.99 C 1036.33 63.59 1032.72 59.00 1027.68 56.30 C 1020.17 52.51 1012.70 47.78 1004.01 47.58 C 993.60 47.34 982.98 46.31 972.77 48.90 C 966.67 50.49 960.26 51.46 954.78 54.77 C 948.53 58.38 941.73 61.39 936.65 66.66 C 933.08 70.69 930.67 75.63 928.90 80.69 C 927.40 84.89 926.88 89.54 924.12 93.19 C 922.24 91.76 921.32 89.64 920.24 87.64 C 917.67 85.27 915.01 82.92 912.03 81.08 C 901.41 77.90 889.91 77.50 879.14 80.28 C 868.97 84.14 860.17 90.89 852.47 98.47 C 846.87 104.59 845.08 113.07 844.28 121.08 C 854.01 117.00 860.97 107.10 872.08 106.46 C 882.75 105.43 895.12 103.70 904.12 110.91 C 905.74 111.72 906.83 114.57 904.66 115.38 C 900.98 117.28 897.59 119.72 894.82 122.82 C 890.14 128.00 884.73 133.16 883.05 140.19 C 881.94 144.82 881.16 149.52 880.09 154.16 C 878.59 160.64 879.24 167.34 879.68 173.90 C 880.79 183.34 883.20 193.49 890.71 199.98 L 890.58 200.65 C 890.47 201.26 890.24 202.48 890.13 203.09 C 886.71 199.65 883.26 196.11 881.13 191.70 C 876.63 183.20 876.12 173.41 875.49 164.02 C 874.93 157.04 877.27 150.35 878.43 143.56 C 879.29 138.62 880.29 133.49 883.56 129.51 C 888.45 123.29 893.33 116.68 900.33 112.70 C 895.33 109.06 888.88 109.42 883.02 109.51 C 876.48 109.88 869.43 109.90 863.79 113.71 C 856.52 118.53 849.24 123.33 841.84 127.96 C 840.90 126.20 839.20 124.41 840.01 122.26 C 841.67 114.52 842.00 106.18 846.39 99.34 C 848.63 95.06 852.71 92.29 856.33 89.27 C 862.94 83.47 870.72 79.03 878.94 75.95 C 889.87 73.48 901.42 74.00 912.18 76.94 C 916.02 79.54 919.24 82.95 923.06 85.60 C 924.95 78.89 926.54 71.71 931.15 66.25 C 934.43 62.03 938.52 58.38 943.47 56.24 C 949.78 53.42 954.93 48.12 961.98 47.05 Z" />
<path fill="#313131" opacity="1.00" d=" M 72.77 166.22 C 82.18 165.76 91.59 165.22 101.00 164.86 C 117.92 164.94 134.86 165.91 151.62 168.26 C 153.76 168.44 155.68 169.39 157.48 170.49 C 151.48 171.05 145.51 170.07 139.56 169.50 C 121.38 167.52 102.88 166.28 84.69 168.85 C 80.21 169.55 75.67 169.78 71.24 170.79 C 71.22 169.29 71.21 167.81 71.21 166.32 C 71.60 166.30 72.38 166.24 72.77 166.22 Z" />
<path fill="#313131" opacity="1.00" d=" M 93.94 194.73 C 104.98 194.33 115.91 192.13 126.99 192.42 C 137.75 192.29 148.42 193.99 158.90 196.25 C 163.48 197.56 167.70 199.86 172.00 201.85 C 171.55 202.60 170.65 204.09 170.20 204.84 C 169.72 204.60 168.76 204.12 168.27 203.88 C 158.04 197.45 145.79 196.08 134.00 195.30 C 118.25 194.40 102.66 197.31 86.97 198.04 C 82.46 198.08 77.62 199.56 73.33 197.68 C 74.80 195.95 77.24 195.81 79.32 195.46 C 84.18 194.97 89.07 194.98 93.94 194.73 Z" />
</g>
<g id="#333333ff">
<path fill="#333333" opacity="1.00" d=" M 612.85 52.11 C 612.24 50.50 610.43 48.58 612.70 47.43 C 622.32 48.85 629.80 56.37 639.67 56.62 C 639.63 57.65 639.60 58.68 639.59 59.71 C 635.72 59.88 631.72 59.57 628.36 57.46 C 623.64 54.56 618.32 52.86 612.85 52.11 Z" />
<path fill="#333333" opacity="1.00" d=" M 147.53 105.28 C 159.67 102.56 171.50 98.53 182.80 93.33 C 183.45 97.55 178.87 98.60 175.89 99.95 C 155.55 108.20 133.79 111.60 112.56 116.69 C 99.15 119.86 85.89 124.61 71.94 124.42 C 70.79 123.46 71.39 121.75 71.09 120.46 C 79.00 120.40 86.93 119.57 94.56 117.42 C 112.04 112.60 129.86 109.26 147.53 105.28 Z" />
<path fill="#333333" opacity="1.00" d=" M 96.76 141.64 C 111.95 137.91 127.35 134.50 142.97 133.48 C 142.69 134.01 142.12 135.09 141.84 135.63 C 136.61 138.20 130.58 138.10 124.97 139.31 C 108.47 141.90 92.50 147.08 75.96 149.43 C 73.44 150.20 72.36 147.60 72.01 145.62 C 80.27 144.42 88.62 143.62 96.76 141.64 Z" />
<path fill="#333333" opacity="1.00" d=" M 885.22 368.88 C 887.02 368.41 888.89 368.37 890.76 368.43 C 887.99 372.38 884.31 375.53 881.11 379.10 C 873.31 388.16 864.66 396.59 858.68 407.05 C 857.23 406.50 856.20 405.39 855.39 404.11 C 863.68 391.07 874.96 380.33 885.22 368.88 Z" />
</g>
<g id="#3a3a3aff">
<path fill="#3a3a3a" opacity="1.00" d=" M 950.32 107.27 C 950.79 107.55 951.72 108.11 952.18 108.39 C 956.94 111.03 962.48 111.93 967.17 114.79 C 973.11 118.36 978.61 122.65 984.07 126.91 C 992.16 134.17 998.60 143.03 1005.86 151.08 C 1010.35 156.11 1014.25 161.67 1017.30 167.69 C 1023.63 180.15 1032.00 191.48 1037.67 204.30 C 1042.83 214.32 1047.54 224.55 1052.30 234.77 C 1056.10 241.46 1058.28 248.86 1060.87 256.07 C 1061.64 258.07 1061.56 260.24 1061.51 262.35 C 1060.27 262.34 1059.06 262.34 1057.85 262.33 C 1055.80 251.76 1051.77 241.72 1046.92 232.15 C 1041.78 220.74 1036.30 209.50 1030.66 198.34 C 1026.06 188.88 1019.53 180.53 1014.97 171.04 C 1008.59 157.83 997.90 147.55 988.56 136.48 C 982.37 128.85 974.14 123.36 966.04 117.99 C 961.37 114.95 956.01 113.26 950.58 112.19 C 950.49 110.55 950.44 108.91 950.32 107.27 Z" />
</g>
<g id="#353535ff">
<path fill="#353535" opacity="1.00" d=" M 930.81 121.80 C 934.91 118.71 940.29 119.08 944.93 117.37 C 948.04 119.58 951.35 121.47 954.53 123.59 C 957.72 125.70 959.48 129.49 963.03 131.14 C 966.79 132.75 969.12 136.26 971.47 139.43 C 976.32 146.28 981.23 153.10 985.59 160.28 C 990.55 168.19 994.48 176.69 999.24 184.71 C 1006.12 196.74 1011.51 209.57 1016.38 222.53 C 1022.28 239.92 1024.86 258.20 1029.60 275.90 C 1041.43 271.65 1053.40 267.74 1065.61 264.66 C 1073.76 262.58 1081.86 260.10 1090.26 259.16 C 1090.64 259.97 1091.40 261.58 1091.79 262.38 C 1085.95 263.98 1079.99 264.97 1074.09 266.25 C 1046.49 272.85 1019.64 282.53 994.27 295.25 C 984.44 299.83 975.04 305.26 965.54 310.47 C 965.38 310.10 965.05 309.34 964.88 308.97 C 965.49 307.87 966.08 306.77 966.75 305.71 C 973.05 301.46 980.03 298.32 986.76 294.82 C 999.08 288.43 1011.81 282.92 1024.66 277.71 C 1024.60 275.59 1024.69 273.45 1024.35 271.36 C 1020.89 259.06 1019.44 246.29 1015.78 234.04 C 1013.31 222.86 1008.36 212.51 1003.97 202.01 C 1001.62 196.54 998.87 191.26 995.88 186.13 C 991.11 178.42 987.49 170.07 982.58 162.44 C 979.08 156.40 974.89 150.82 970.92 145.08 C 969.11 142.60 967.39 140.00 965.11 137.92 C 958.71 133.12 954.52 125.62 946.86 122.49 C 942.46 123.26 937.54 122.79 933.85 125.73 C 924.83 132.32 916.17 140.21 911.51 150.57 C 907.16 160.25 904.09 170.55 903.39 181.17 C 901.25 192.08 903.31 203.20 902.55 214.19 C 897.74 211.33 894.03 207.02 890.13 203.09 C 890.24 202.48 890.47 201.26 890.58 200.65 C 893.24 202.86 895.78 205.22 898.51 207.36 C 898.71 198.38 897.70 189.30 899.45 180.42 C 900.28 174.06 900.66 167.58 902.82 161.47 C 905.83 151.84 909.61 142.08 916.54 134.54 C 921.02 130.01 925.80 125.75 930.81 121.80 Z" />
<path fill="#353535" opacity="1.00" d=" M 826.54 508.49 C 827.78 508.28 829.03 508.49 830.29 508.52 C 835.02 520.92 838.97 533.62 842.53 546.41 C 847.77 562.70 853.65 578.77 858.53 595.17 C 863.27 609.07 866.46 623.48 871.88 637.15 C 874.93 643.80 876.45 651.11 880.44 657.34 C 879.18 659.76 876.83 657.59 875.74 656.18 C 872.63 651.52 871.56 645.89 869.39 640.79 C 863.75 627.54 860.58 613.45 856.05 599.81 C 850.15 579.76 842.91 560.14 836.80 540.15 C 834.41 531.11 831.37 522.26 828.21 513.47 C 827.07 514.44 826.03 515.53 824.81 516.41 C 823.15 516.66 821.49 516.82 819.83 517.00 C 821.43 513.73 823.63 510.70 826.54 508.49 Z" />
</g>
<g id="#2c2c2cff">
<path fill="#2c2c2c" opacity="1.00" d=" M 636.36 145.37 C 641.21 140.55 646.09 135.57 652.10 132.17 C 652.49 132.92 653.29 134.43 653.69 135.19 C 647.01 141.76 638.69 147.02 634.30 155.60 C 633.40 155.51 632.51 155.43 631.63 155.34 C 630.35 151.22 633.90 148.14 636.36 145.37 Z" />
<path fill="#2c2c2c" opacity="1.00" d=" M 728.69 136.93 C 729.38 137.12 730.77 137.50 731.46 137.69 C 735.98 141.46 739.27 146.44 743.52 150.49 C 748.04 155.32 753.86 158.94 757.49 164.58 C 758.62 165.85 758.36 167.57 758.43 169.14 C 755.10 168.18 754.08 164.46 751.58 162.42 C 744.13 155.54 737.34 147.99 730.00 141.00 C 728.73 140.03 728.73 138.37 728.69 136.93 Z" />
</g>
<g id="#272727ff">
<path fill="#272727" opacity="1.00" d=" M 693.41 145.92 C 696.73 147.14 696.91 151.01 697.37 153.98 C 698.36 160.39 696.10 166.65 696.18 173.04 C 696.26 174.71 696.00 176.38 695.11 177.83 C 693.99 176.08 692.50 174.31 692.66 172.09 C 692.69 166.37 694.66 160.77 694.14 155.02 C 693.83 151.99 693.31 148.97 693.41 145.92 Z" />
<path fill="#272727" opacity="1.00" d=" M 404.28 228.24 C 407.79 224.61 412.57 222.71 417.21 221.00 C 428.71 217.76 441.77 227.02 442.38 238.96 C 441.87 242.70 441.12 246.68 438.61 249.65 C 435.75 253.45 430.68 254.12 426.66 256.16 C 421.34 256.04 416.06 255.10 410.72 255.72 C 407.21 255.68 404.65 252.94 402.36 250.64 C 399.09 247.35 396.62 242.67 397.57 237.93 C 398.26 233.85 401.58 231.06 404.28 228.24 M 417.20 225.39 C 410.41 227.91 403.89 232.85 401.67 239.99 C 400.95 244.60 404.24 248.60 407.26 251.69 C 413.80 250.34 420.53 254.61 426.78 251.54 C 429.77 250.14 433.37 249.26 435.28 246.34 C 438.09 242.44 438.25 237.19 437.22 232.66 C 435.27 228.73 431.76 224.49 427.01 224.43 C 423.73 224.24 420.23 223.79 417.20 225.39 Z" />
</g>
<g id="#9e9e9eff">
<path fill="#9e9e9e" opacity="1.00" d=" M 72.77 166.22 C 75.23 163.80 78.89 164.77 81.98 164.53 C 107.26 163.91 132.84 163.35 157.74 168.42 C 157.79 169.54 157.84 170.66 157.89 171.78 C 145.86 172.03 134.01 169.39 122.01 168.96 C 109.58 168.14 97.13 169.07 84.69 168.85 C 102.88 166.28 121.38 167.52 139.56 169.50 C 145.51 170.07 151.48 171.05 157.48 170.49 C 155.68 169.39 153.76 168.44 151.62 168.26 C 134.86 165.91 117.92 164.94 101.00 164.86 C 91.59 165.22 82.18 165.76 72.77 166.22 Z" />
<path fill="#9e9e9e" opacity="1.00" d=" M 93.89 193.71 C 104.95 193.15 115.90 190.98 127.00 191.22 C 136.07 191.13 145.09 192.36 153.98 194.10 C 155.77 194.41 157.40 195.26 158.90 196.25 C 148.42 193.99 137.75 192.29 126.99 192.42 C 115.91 192.13 104.98 194.33 93.94 194.73 C 89.07 194.98 84.18 194.97 79.32 195.46 C 77.24 195.81 74.80 195.95 73.33 197.68 C 77.62 199.56 82.46 198.08 86.97 198.04 C 102.66 197.31 118.25 194.40 134.00 195.30 C 145.79 196.08 158.04 197.45 168.27 203.88 C 162.99 203.06 158.49 199.82 153.24 198.86 C 145.26 197.26 137.12 196.38 128.99 195.96 C 116.30 196.14 103.73 198.15 91.07 198.77 C 84.76 198.99 78.48 200.04 72.17 199.55 C 72.22 198.23 72.32 196.92 72.41 195.61 C 79.43 193.84 86.72 194.19 93.89 193.71 Z" />
</g>
<g id="#2a2a2aff">
<path fill="#2a2a2a" opacity="1.00" d=" M 475.00 225.02 C 482.16 218.10 494.65 221.40 499.77 229.24 C 504.77 234.84 504.25 243.92 499.48 249.47 C 497.04 250.79 494.43 251.74 491.95 252.94 C 501.06 258.07 506.07 267.91 509.45 277.40 C 515.11 292.34 514.03 308.81 519.18 323.86 C 519.57 324.07 520.35 324.48 520.74 324.69 C 530.96 324.65 541.19 324.67 551.40 324.32 C 559.56 323.14 567.85 324.10 576.00 322.75 C 584.02 322.63 591.96 321.30 600.00 321.55 C 612.25 321.77 624.56 320.48 636.73 322.44 C 636.63 323.43 636.54 324.43 636.47 325.43 C 627.99 326.19 619.47 325.14 611.00 326.15 C 599.32 326.41 587.58 325.91 575.96 327.36 C 572.32 327.63 568.66 327.58 565.01 327.77 C 552.71 329.03 540.33 328.53 527.99 328.80 C 519.33 329.77 510.60 329.36 501.91 329.76 C 489.97 331.20 477.90 329.89 465.96 331.29 C 456.97 331.48 448.02 332.43 439.04 332.74 C 430.73 333.91 422.31 333.24 413.96 333.79 C 407.57 334.77 401.08 334.29 394.70 335.36 C 386.13 335.57 377.63 336.76 369.04 336.62 C 348.74 338.62 328.33 338.70 308.00 340.35 C 300.47 340.87 292.60 339.50 285.47 342.62 C 286.41 349.35 286.69 356.15 287.88 362.84 C 291.04 376.79 293.89 390.96 299.94 404.02 C 303.28 410.81 305.26 418.20 309.00 424.82 C 311.38 428.90 312.68 433.59 315.62 437.34 C 321.05 440.21 327.50 440.05 333.44 439.31 C 339.40 438.52 344.42 434.97 349.88 432.76 C 354.16 431.07 358.18 428.67 361.45 425.42 C 367.61 419.07 374.86 413.52 378.80 405.37 C 379.90 405.49 381.06 405.44 382.11 405.87 C 384.65 408.63 385.13 412.61 387.38 415.58 C 393.10 423.64 402.24 428.04 410.81 432.38 C 417.63 435.29 425.39 436.16 432.70 435.01 C 450.44 429.87 465.55 418.28 477.86 404.79 C 480.90 401.89 483.66 397.25 488.53 398.19 C 490.85 403.94 493.09 409.93 497.49 414.48 C 503.62 420.80 509.57 427.72 517.78 431.42 C 529.70 437.75 543.89 437.49 556.74 434.59 C 561.68 433.53 566.40 431.65 570.61 428.86 C 578.78 426.12 584.68 419.54 590.99 414.03 C 594.11 411.43 596.38 408.04 597.98 404.33 C 599.37 404.64 601.20 404.53 601.55 406.31 C 603.65 411.78 607.73 416.08 612.05 419.90 C 614.52 414.82 617.63 410.06 619.66 404.76 C 622.61 396.95 626.55 389.38 627.67 381.01 C 629.73 369.72 630.10 358.23 631.37 346.85 C 631.19 340.53 632.23 334.30 633.29 328.09 C 634.72 328.91 636.69 329.24 637.24 331.04 C 636.57 336.69 635.36 342.30 635.53 348.03 C 634.44 360.74 633.74 373.53 631.21 386.07 C 629.52 393.02 626.39 399.49 623.90 406.17 C 621.89 411.81 618.22 416.66 616.18 422.29 C 631.22 433.93 651.14 439.27 669.92 435.71 C 674.99 434.58 679.74 432.40 684.58 430.54 C 692.47 427.22 700.69 424.00 707.07 418.08 C 712.97 412.33 719.42 407.09 724.53 400.57 C 725.36 398.99 727.23 399.29 728.73 399.22 C 729.04 401.32 728.51 403.41 726.89 404.86 C 721.18 410.83 715.19 416.54 708.97 421.97 C 702.97 427.16 695.49 430.05 688.30 433.14 C 680.52 436.27 672.61 439.95 664.02 439.67 C 652.23 440.50 640.38 438.16 629.61 433.35 C 618.65 427.77 607.54 421.57 599.78 411.75 C 592.09 418.42 585.18 426.25 576.02 431.00 C 563.63 438.02 549.04 440.32 534.97 439.24 C 523.94 437.94 513.46 433.12 504.73 426.34 C 497.40 419.54 489.56 412.60 485.95 402.97 C 477.81 410.49 470.41 418.93 461.24 425.26 C 454.96 429.65 448.01 432.94 441.00 435.96 C 431.70 439.97 420.99 438.69 411.63 435.54 C 399.61 430.30 387.01 423.84 380.32 411.96 C 377.62 415.03 375.04 418.22 371.99 420.95 C 366.77 425.70 362.13 431.45 355.45 434.21 C 348.90 436.79 342.90 440.97 335.81 441.97 C 324.42 444.10 312.88 440.40 303.00 434.89 C 298.48 432.26 294.56 428.76 290.41 425.61 C 285.59 422.09 282.33 416.98 277.90 413.05 C 273.08 418.80 267.93 424.27 262.46 429.41 C 256.30 434.64 248.51 437.44 240.86 439.67 C 231.88 442.23 222.34 441.00 213.58 438.23 C 206.42 435.49 199.27 431.56 194.79 425.14 C 191.92 421.25 188.03 418.06 186.13 413.51 C 187.60 413.43 189.07 413.37 190.55 413.36 C 194.47 418.74 198.64 423.95 203.28 428.73 C 209.78 434.50 218.31 437.89 226.98 438.42 C 235.96 438.86 244.64 435.56 252.56 431.62 C 258.26 428.95 262.11 423.80 266.56 419.55 C 269.82 416.43 272.58 412.85 275.07 409.10 C 275.72 407.41 277.50 407.53 278.99 407.27 C 286.56 418.20 296.43 427.67 308.06 434.18 C 299.69 415.41 290.49 396.72 286.28 376.45 C 283.43 365.84 281.81 354.93 281.24 343.97 C 281.37 341.96 280.75 339.19 282.76 337.94 C 289.63 335.68 296.94 336.77 303.99 335.86 C 311.51 335.34 319.12 335.92 326.56 334.46 C 327.89 325.38 326.60 316.12 328.15 307.04 C 328.25 296.53 329.85 285.16 336.93 276.92 C 340.06 273.10 344.80 271.50 349.16 269.56 C 343.81 266.73 337.84 262.73 337.65 255.98 C 338.21 250.09 340.34 243.89 345.06 240.01 C 348.73 236.32 354.10 235.49 359.00 234.64 C 366.59 233.54 373.25 239.45 376.11 246.01 C 379.02 251.61 376.88 258.15 374.38 263.49 C 372.00 267.07 367.60 268.37 363.82 269.92 C 372.59 274.12 379.57 281.51 383.90 290.16 C 386.74 294.92 387.58 300.52 390.23 305.36 C 391.08 294.78 391.40 283.98 394.98 273.88 C 397.84 267.15 402.86 260.59 410.43 259.05 C 415.82 256.93 421.51 258.06 426.97 259.23 C 428.75 259.48 430.46 260.09 431.93 261.14 C 436.38 264.21 441.16 267.05 444.41 271.50 C 449.60 277.70 451.29 285.79 454.05 293.19 C 456.42 281.89 456.90 269.60 463.81 259.84 C 466.50 255.22 471.69 253.30 475.96 250.52 C 474.20 248.13 471.63 246.07 471.23 242.95 C 470.00 236.89 469.77 229.35 475.00 225.02 M 474.78 235.97 C 474.60 240.38 475.12 245.16 478.19 248.59 C 482.01 248.05 485.84 248.70 489.68 248.69 C 493.53 248.08 497.57 245.78 498.43 241.68 C 498.79 238.07 499.66 233.89 497.32 230.74 C 494.81 226.71 489.77 223.92 485.01 224.96 C 479.64 225.58 474.85 230.48 474.78 235.97 M 347.83 243.83 C 343.54 248.05 341.16 254.54 342.69 260.48 C 345.45 265.61 351.58 266.20 356.06 269.09 C 360.06 265.99 365.35 265.41 369.30 262.30 C 372.98 257.72 373.38 251.23 372.23 245.66 C 370.43 242.13 367.45 237.88 362.97 238.31 C 357.60 238.55 351.52 239.50 347.83 243.83 M 479.52 253.66 C 474.08 256.10 468.69 259.61 465.98 265.12 C 461.20 274.35 460.24 284.87 458.74 294.99 C 457.47 305.65 460.23 316.13 460.51 326.74 C 471.29 326.65 482.07 326.31 492.85 326.34 C 502.57 325.27 512.39 325.39 522.17 325.35 C 519.58 324.81 516.62 324.44 514.82 322.30 C 512.10 316.72 511.85 310.40 510.82 304.39 C 509.61 297.54 509.17 290.54 507.35 283.81 C 504.80 275.13 501.80 266.19 495.68 259.32 C 491.42 255.33 485.56 251.71 479.52 253.66 M 406.48 265.46 C 401.96 269.29 399.06 274.76 397.79 280.50 C 396.27 287.21 395.45 294.10 395.39 300.99 C 395.19 304.99 394.11 308.98 394.83 313.00 C 396.00 318.87 394.64 324.97 396.44 330.75 C 400.63 330.52 404.84 330.55 409.00 329.89 C 418.18 329.09 427.45 329.90 436.61 328.70 C 443.29 328.54 449.94 327.99 456.58 327.28 C 455.45 319.77 455.22 312.10 453.21 304.74 C 450.69 296.70 448.37 288.60 445.57 280.66 C 442.85 273.03 436.96 266.90 429.84 263.20 C 422.26 260.31 413.19 260.58 406.48 265.46 M 343.11 277.20 C 339.43 279.75 337.39 283.91 335.73 287.94 C 332.97 294.94 332.41 302.53 332.41 309.99 C 331.20 317.88 331.55 325.86 331.58 333.80 C 341.72 333.66 351.91 334.06 361.98 332.69 C 371.21 332.53 380.41 331.87 389.63 331.27 C 389.19 326.84 388.47 322.44 388.08 318.01 C 387.11 308.79 384.25 299.85 380.47 291.42 C 376.70 284.03 371.62 276.56 363.70 273.23 C 356.67 271.05 349.14 273.38 343.11 277.20 Z" />
</g>
<g id="#fefefeff">
<path fill="#fefefe" opacity="1.00" d=" M 417.20 225.39 C 420.23 223.79 423.73 224.24 427.01 224.43 C 431.76 224.49 435.27 228.73 437.22 232.66 C 438.25 237.19 438.09 242.44 435.28 246.34 C 433.37 249.26 429.77 250.14 426.78 251.54 C 420.53 254.61 413.80 250.34 407.26 251.69 C 404.24 248.60 400.95 244.60 401.67 239.99 C 403.89 232.85 410.41 227.91 417.20 225.39 Z" />
<path fill="#fefefe" opacity="1.00" d=" M 474.78 235.97 C 474.85 230.48 479.64 225.58 485.01 224.96 C 489.77 223.92 494.81 226.71 497.32 230.74 C 499.66 233.89 498.79 238.07 498.43 241.68 C 497.57 245.78 493.53 248.08 489.68 248.69 C 485.84 248.70 482.01 248.05 478.19 248.59 C 475.12 245.16 474.60 240.38 474.78 235.97 Z" />
<path fill="#fefefe" opacity="1.00" d=" M 347.83 243.83 C 351.52 239.50 357.60 238.55 362.97 238.31 C 367.45 237.88 370.43 242.13 372.23 245.66 C 373.38 251.23 372.98 257.72 369.30 262.30 C 365.35 265.41 360.06 265.99 356.06 269.09 C 351.58 266.20 345.45 265.61 342.69 260.48 C 341.16 254.54 343.54 248.05 347.83 243.83 Z" />
</g>
<g id="#dbdbdbff">
<path fill="#dbdbdb" opacity="1.00" d=" M 410.72 255.72 C 416.06 255.10 421.34 256.04 426.66 256.16 C 425.96 256.65 425.28 257.15 424.59 257.64 C 425.38 258.17 426.17 258.70 426.97 259.23 C 421.51 258.06 415.82 256.93 410.43 259.05 C 410.53 257.94 410.62 256.83 410.72 255.72 Z" />
</g>
<g id="#3b3b3bff">
<path fill="#3b3b3b" opacity="1.00" d=" M 944.41 319.41 C 951.69 314.58 959.03 309.82 966.75 305.71 C 966.08 306.77 965.49 307.87 964.88 308.97 C 965.05 309.34 965.38 310.10 965.54 310.47 C 938.65 326.80 913.58 346.17 891.35 368.44 L 890.76 368.43 C 888.89 368.37 887.02 368.41 885.22 368.88 C 903.30 350.54 923.23 334.04 944.41 319.41 Z" />
</g>
<g id="#363636ff">
<path fill="#363636" opacity="1.00" d=" M 1074.95 396.02 C 1076.28 394.01 1077.80 392.13 1079.33 390.27 C 1080.29 390.42 1081.26 390.57 1082.25 390.73 C 1082.38 391.28 1082.64 392.38 1082.77 392.93 C 1078.04 398.22 1075.00 404.87 1069.60 409.59 C 1055.94 420.84 1039.75 429.72 1022.01 432.11 C 1012.52 434.80 1002.35 433.86 993.07 430.80 C 979.49 425.24 968.44 415.06 959.02 404.05 C 955.95 406.96 953.18 410.18 949.99 412.95 C 938.82 421.38 925.35 425.98 911.82 428.91 C 904.59 430.29 897.24 428.94 890.13 427.56 C 877.97 424.95 866.90 418.95 856.40 412.50 C 850.97 409.07 845.74 405.32 840.97 401.03 C 838.69 399.18 836.59 396.90 833.70 396.04 C 829.50 405.15 822.33 413.12 812.97 417.04 C 806.94 419.40 800.38 419.80 793.98 419.41 C 789.39 419.07 785.24 416.84 781.32 414.62 C 777.03 412.08 772.66 409.41 769.50 405.47 C 767.43 402.74 765.82 399.71 764.29 396.67 C 765.58 396.56 766.97 396.02 768.24 396.62 C 771.01 400.82 772.88 405.86 777.15 408.85 C 781.74 411.99 786.52 415.34 792.12 416.29 C 800.32 417.11 809.11 415.93 815.93 410.98 C 823.36 406.48 827.55 398.56 831.66 391.22 C 833.92 391.66 835.90 392.87 837.52 394.50 C 845.97 402.25 855.06 409.39 865.23 414.75 C 877.22 421.95 891.06 426.08 905.05 426.42 C 912.97 426.05 920.38 422.87 927.93 420.72 C 939.46 416.17 950.83 409.31 957.11 398.23 C 960.61 399.41 962.14 402.98 964.37 405.61 C 968.53 411.40 974.29 415.68 979.62 420.30 C 985.50 424.19 991.68 428.10 998.73 429.38 C 1004.00 430.42 1009.47 431.13 1014.81 430.17 C 1023.65 428.27 1032.78 427.03 1040.98 422.96 C 1054.13 416.87 1067.46 408.88 1074.95 396.02 Z" />
</g>
<g id="#262626ff">
<path fill="#262626" opacity="1.00" d=" M 191.67 683.98 C 192.11 675.62 203.17 669.98 209.82 675.64 C 210.05 676.17 210.52 677.25 210.76 677.79 C 210.26 677.83 209.28 677.92 208.79 677.97 C 205.99 677.85 202.91 676.67 200.34 678.32 C 197.96 679.84 195.08 681.92 195.31 685.11 C 194.78 688.58 197.06 691.74 200.03 693.28 C 204.91 694.62 210.61 692.80 213.48 688.55 C 214.95 686.73 214.26 684.21 215.19 682.19 C 216.36 681.74 217.51 681.87 218.64 682.59 C 219.38 689.34 214.35 696.28 207.58 697.41 C 203.94 698.32 200.31 697.15 197.00 695.69 C 187.75 702.42 181.10 711.96 172.25 719.15 C 169.20 721.74 166.37 724.59 163.07 726.88 C 155.01 732.64 147.55 739.19 140.52 746.17 C 144.83 750.48 150.03 753.83 155.66 756.16 C 163.61 759.53 171.06 764.05 179.19 767.00 C 179.98 764.45 181.34 760.93 184.65 761.42 C 188.17 764.95 191.75 768.44 195.10 772.15 C 192.18 775.68 187.02 775.78 184.01 779.16 C 183.09 780.17 181.57 781.52 180.35 780.02 C 177.24 778.21 178.72 774.35 179.44 771.63 C 166.42 769.04 152.78 766.24 142.03 757.96 C 134.25 752.54 127.51 745.56 122.71 737.36 C 117.28 727.04 116.17 715.26 114.44 703.93 C 113.03 703.53 111.63 703.09 110.25 702.62 C 109.67 698.69 113.93 697.46 115.87 694.80 C 116.95 693.27 118.39 692.07 120.35 691.96 C 121.67 695.67 123.18 699.32 124.66 702.98 C 123.47 703.80 122.28 704.64 121.09 705.48 C 121.36 711.61 122.92 717.63 124.63 723.49 C 127.59 729.20 131.64 734.32 135.72 739.28 C 142.41 734.14 149.58 729.55 155.56 723.55 C 160.84 718.44 167.15 714.57 172.82 709.91 C 178.61 704.97 184.40 700.03 190.40 695.34 C 191.59 694.28 193.00 693.34 193.76 691.91 C 193.19 689.23 191.97 686.71 191.67 683.98 Z" />
</g>
</svg>
